<svg xmlns="http://www.w3.org/2000/svg" xmlns:xlink="http://www.w3.org/1999/xlink" aria-hidden="true" role="img" class="iconify iconify--logos" width="31.88" height="32" preserveAspectRatio="xMidYMid meet" viewBox="0 0 256 257"><defs><linearGradient id="IconifyId181e5f14e25a2ef921" x1="-.828%" x2="57.636%" y1="7.652%" y2="78.411%"><stop offset="0%" stop-color="#41D1FF"></stop><stop offset="100%" stop-color="#BD34FE"></stop></linearGradient><linearGradient id="IconifyId181e5f14e25a2ef922" x1="43.376%" x2="50.325%" y1="2.242%" y2="89.03%"><stop offset="0%" stop-color="#FFEA83"></stop><stop offset="8.333%" stop-color="#FFDD35"></stop><stop offset="100%" stop-color="#FFA800"></stop></linearGradient></defs><path fill="url(#IconifyId181e5f14e25a2ef921)" d="M255.153 37.936L134.897 252.676c-2.483 4.424-8.85 4.461-11.382.069L.854 37.936c-2.11-3.655.765-8.155 4.962-7.747L128 42.176l122.184-12.016c4.197-.408 7.072 4.092 4.969 7.776z"></path><path fill="url(#IconifyId181e5f14e25a2ef922)" d="M141.037 12.164L32.18 36.634c-1.873.421-2.924 2.479-2.094 4.148l133.22 268.04c.82 1.65 3.14 1.63 3.93-.04L229.42 165.73l9.46-83.33c.27-2.39-1.93-4.47-4.32-4.04l-93.523 13.804z"></path></svg>
